<svg xmlns="http://www.w3.org/2000/svg" xmlns:xlink="http://www.w3.org/1999/xlink" width="500" zoomAndPan="magnify" viewBox="0 0 375 374.999991" height="500" preserveAspectRatio="xMidYMid meet" version="1.0"><defs><g/></defs><rect x="-37.5" width="450" fill="#ffffff" y="-37.499999" height="449.999989" fill-opacity="1"/><rect x="-37.5" width="450" fill="#232e1f" y="-37.499999" height="449.999989" fill-opacity="1"/><g fill="#eccca5" fill-opacity="1"><g transform="translate(104.944334, 196.499987)"><g><path d="M 17.480469 -22.878906 L 17.480469 -28.597656 L 3.199219 -28.597656 L 3.199219 0 L 8.917969 0 L 8.917969 -11.4375 L 16.199219 -11.4375 L 16.199219 -17.160156 L 8.917969 -17.160156 L 8.917969 -22.878906 Z M 17.480469 -22.878906 "/></g></g></g><g fill="#eccca5" fill-opacity="1"><g transform="translate(123.942441, 196.499987)"><g><path d="M 16.957031 0.398438 C 36.636719 0.398438 36.636719 -29.078125 16.957031 -29.078125 C -2.71875 -29.078125 -2.71875 0.398438 16.957031 0.398438 Z M 16.957031 -5.519531 C 5.519531 -5.519531 5.519531 -23.199219 16.957031 -23.199219 C 28.398438 -23.199219 28.398438 -5.519531 16.957031 -5.519531 Z M 16.957031 -5.519531 "/></g></g></g><g fill="#eccca5" fill-opacity="1"><g transform="translate(157.81908, 196.499987)"><g><path d="M 17.4375 0 L 23.917969 0 L 17.277344 -11.800781 C 25.679688 -14.238281 24.679688 -28.597656 14.480469 -28.597656 L 3.199219 -28.597656 L 3.199219 0 L 8.917969 0 L 8.917969 -10.917969 L 11.679688 -10.917969 Z M 8.917969 -16.480469 L 8.917969 -22.878906 L 13.960938 -22.878906 C 17.839844 -22.878906 17.839844 -16.480469 13.960938 -16.480469 Z M 8.917969 -16.480469 "/></g></g></g><g fill="#eccca5" fill-opacity="1"><g transform="translate(182.336649, 196.499987)"><g><path d="M 18 0 L 18 -5.71875 L 8.917969 -5.71875 L 8.917969 -11.4375 L 16.4375 -11.4375 L 16.4375 -17.160156 L 8.917969 -17.160156 L 8.917969 -22.878906 L 17.519531 -22.878906 L 17.519531 -28.597656 L 3.199219 -28.597656 L 3.199219 0 Z M 18 0 "/></g></g></g><g fill="#eccca5" fill-opacity="1"><g transform="translate(202.494649, 196.499987)"><g><path d="M 1.878906 -1.839844 C 5.757812 0.160156 9.320312 0.359375 10.917969 0.238281 C 16.277344 -0.0390625 19.558594 -3.679688 19.558594 -8.441406 C 19.558594 -13 15.71875 -15.558594 11.277344 -17.199219 C 9.640625 -17.757812 8.238281 -18.480469 8.078125 -20.078125 C 7.960938 -21.679688 8.878906 -23.160156 10.917969 -23.277344 C 11.800781 -23.320312 13.597656 -23.359375 16.757812 -22.078125 L 17.480469 -27.597656 C 13.800781 -28.878906 11.839844 -28.878906 10.359375 -28.796875 C 5.601562 -28.558594 2.28125 -24.878906 2.28125 -20.078125 C 2.28125 -15.277344 6.28125 -13 10.757812 -11.359375 C 12.359375 -10.800781 13.597656 -10.078125 13.71875 -8.441406 C 13.878906 -6.878906 12.4375 -5.679688 10.757812 -5.558594 C 9.4375 -5.441406 5.878906 -5.519531 2.601562 -7.839844 Z M 1.878906 -1.839844 "/></g></g></g><g fill="#eccca5" fill-opacity="1"><g transform="translate(223.652542, 196.499987)"><g><path d="M 13.640625 0 L 13.640625 -22.878906 L 20.757812 -22.878906 L 20.757812 -28.558594 L 0.800781 -28.558594 L 0.800781 -22.878906 L 7.917969 -22.878906 L 7.917969 0 Z M 13.640625 0 "/></g></g></g><g fill="#eccca5" fill-opacity="1"><g transform="translate(245.530371, 196.499987)"><g><path d="M 17.4375 0 L 23.917969 0 L 17.277344 -11.800781 C 25.679688 -14.238281 24.679688 -28.597656 14.480469 -28.597656 L 3.199219 -28.597656 L 3.199219 0 L 8.917969 0 L 8.917969 -10.917969 L 11.679688 -10.917969 Z M 8.917969 -16.480469 L 8.917969 -22.878906 L 13.960938 -22.878906 C 17.839844 -22.878906 17.839844 -16.480469 13.960938 -16.480469 Z M 8.917969 -16.480469 "/></g></g></g></svg>